<svg height="512" viewBox="0 0 512.019 512.019" width="512" xmlns="http://www.w3.org/2000/svg"><path d="M506.881 5.136C502.175.43 495.326-1.194 489.008.897L151.123 112.732c-9.206 3.047-4.494 17.287 4.713 14.24L493.721 15.137c2.352-.246 3.405.807 3.159 3.159L353.546 451.349c-1.116 3.372-5.817 3.654-7.329.439l-57.879-123.136 27.458-44.321c5.108-8.243-7.644-16.142-12.751-7.899L275.868 320.3l-67.801-5.742L395.62 127.004l-71.77 115.847c-5.107 8.243 7.644 16.143 12.751 7.899L442.455 79.887c4.081-6.575-3.77-14.404-10.337-10.318L183.756 224.068 60.18 165.813c-3.211-1.514-2.927-6.211.443-7.327l57.66-19.084c9.206-3.047 4.493-17.287-4.713-14.24l-57.66 19.084c-15.917 5.268-17.292 27.986-2.126 35.135l123.339 58.143 6.749 83.747c.292 3.626 3.237 6.543 6.843 6.871l84.158 7.127 57.769 122.9c7.098 15.1 29.88 13.8 35.144-2.107L511.12 23.01c2.092-6.319.467-13.167-4.239-17.874zM197.521 303.89l-4.789-59.425-.638-7.918 192.55-119.779zm-50.644 56.694a7.5 7.5 0 00-10.605.17L2.136 499.277c-6.731 6.95 4.006 17.426 10.775 10.435L147.047 371.19a7.5 7.5 0 00-.17-10.606zm48.159.203L89.019 471.19c-6.697 6.974 4.072 17.415 10.819 10.39l106.017-110.403c6.717-6.995-4.101-17.384-10.819-10.39zM32.523 424.544c1.97 0 3.938-.772 5.411-2.305L143.95 311.836c6.717-6.995-4.102-17.384-10.819-10.39L27.114 411.849c-4.319 4.498-.798 12.695 5.409 12.695z"/></svg>